<?xml version="1.0" encoding="UTF-8" standalone="no"?>
<!DOCTYPE svg PUBLIC "-//W3C//DTD SVG 1.1//EN" "http://www.w3.org/Graphics/SVG/1.1/DTD/svg11.dtd">
<svg width="100%" height="100%" viewBox="0 0 308 308" version="1.1" xmlns="http://www.w3.org/2000/svg" xmlns:xlink="http://www.w3.org/1999/xlink" xml:space="preserve" xmlns:serif="http://www.serif.com/" style="fill-rule:evenodd;clip-rule:evenodd;stroke-linecap:round;stroke-linejoin:round;stroke-miterlimit:1.5;">
    <g transform="matrix(1,0,0,1,-2465.3,0)">
        <g id="clock" transform="matrix(0.493777,0,0,0.51356,2359.14,-168.961)">
            <rect x="215" y="329" width="622" height="598" style="fill:none;"/>
            <g transform="matrix(6.353,0,0,3.54898,-3791.91,-1583.87)">
                <g id="clock1" serif:id="clock" transform="matrix(0.41639,0,0,0.716663,473.969,246.977)">
                    <g>
                        <g transform="matrix(-1,-1.22465e-16,1.22465e-16,-1,817,831)">
                            <path d="M395,408L404,423L386,423L395,408Z" style="fill:rgb(80,218,218);stroke:black;stroke-width:0.77px;"/>
                        </g>
                        <g transform="matrix(-1,-1.22465e-16,1.22465e-16,-1,835,831)">
                            <path d="M395,408L404,423L386,423L395,408Z" style="fill:rgb(212,49,212);stroke:black;stroke-width:0.77px;"/>
                        </g>
                        <g transform="matrix(-1,-1.22465e-16,1.22465e-16,-1,853,831)">
                            <path d="M395,408L404,423L386,423L395,408Z" style="fill:rgb(218,218,78);stroke:black;stroke-width:0.77px;"/>
                        </g>
                        <g transform="matrix(-1,-1.22465e-16,1.22465e-16,-1,871,831)">
                            <path d="M395,408L404,423L386,423L395,408Z" style="fill:rgb(80,218,218);stroke:black;stroke-width:0.77px;"/>
                        </g>
                        <g transform="matrix(-1,-1.22465e-16,1.22465e-16,-1,889,831)">
                            <path d="M395,408L404,423L386,423L395,408Z" style="fill:rgb(212,49,212);stroke:black;stroke-width:0.77px;"/>
                        </g>
                        <g transform="matrix(-1,-1.22465e-16,1.22465e-16,-1,907,831)">
                            <path d="M395,408L404,423L386,423L395,408Z" style="fill:rgb(218,218,78);stroke:black;stroke-width:0.77px;"/>
                        </g>
                        <g transform="matrix(-1,-1.22465e-16,1.22465e-16,-1,925,831)">
                            <path d="M395,408L404,423L386,423L395,408Z" style="fill:rgb(80,218,218);stroke:black;stroke-width:0.77px;"/>
                        </g>
                        <g transform="matrix(-1,-1.22465e-16,1.22465e-16,-1,943,831)">
                            <path d="M395,408L404,423L386,423L395,408Z" style="fill:rgb(212,49,212);stroke:black;stroke-width:0.77px;"/>
                        </g>
                        <g transform="matrix(-1,-1.22465e-16,1.22465e-16,-1,961,831)">
                            <path d="M395,408L404,423L386,423L395,408Z" style="fill:rgb(218,218,78);stroke:black;stroke-width:0.77px;"/>
                        </g>
                        <g transform="matrix(-1,-1.22465e-16,1.22465e-16,-1,979,831)">
                            <path d="M395,408L404,423L386,423L395,408Z" style="fill:rgb(80,218,218);stroke:black;stroke-width:0.77px;"/>
                        </g>
                        <g transform="matrix(-1,-1.22465e-16,1.22465e-16,-1,997,831)">
                            <path d="M395,408L404,423L386,423L395,408Z" style="fill:rgb(212,49,212);stroke:black;stroke-width:0.77px;"/>
                        </g>
                        <g transform="matrix(1,0,0,1,18,0)">
                            <path d="M395,408L404,423L386,423L395,408Z" style="fill:rgb(212,49,212);stroke:black;stroke-width:0.77px;"/>
                        </g>
                        <g transform="matrix(1,0,0,1,36,0)">
                            <path d="M395,408L404,423L386,423L395,408Z" style="fill:rgb(218,218,78);stroke:black;stroke-width:0.77px;"/>
                        </g>
                        <g transform="matrix(1,0,0,1,54,0)">
                            <path d="M395,408L404,423L386,423L395,408Z" style="fill:rgb(80,218,218);stroke:black;stroke-width:0.77px;"/>
                        </g>
                        <g transform="matrix(1,0,0,1,72,0)">
                            <path d="M395,408L404,423L386,423L395,408Z" style="fill:rgb(212,49,212);stroke:black;stroke-width:0.77px;"/>
                        </g>
                        <g transform="matrix(1,0,0,1,90,0)">
                            <path d="M395,408L404,423L386,423L395,408Z" style="fill:rgb(218,218,78);stroke:black;stroke-width:0.77px;"/>
                        </g>
                        <g transform="matrix(1,0,0,1,108,0)">
                            <path d="M395,408L404,423L386,423L395,408Z" style="fill:rgb(80,218,218);stroke:black;stroke-width:0.77px;"/>
                        </g>
                        <g transform="matrix(1,0,0,1,126,0)">
                            <path d="M395,408L404,423L386,423L395,408Z" style="fill:rgb(212,49,212);stroke:black;stroke-width:0.77px;"/>
                        </g>
                        <g transform="matrix(1,0,0,1,144,0)">
                            <path d="M395,408L404,423L386,423L395,408Z" style="fill:rgb(218,218,78);stroke:black;stroke-width:0.77px;"/>
                        </g>
                        <g transform="matrix(1,0,0,1,162,0)">
                            <path d="M395,408L404,423L386,423L395,408Z" style="fill:rgb(80,218,218);stroke:black;stroke-width:0.77px;"/>
                        </g>
                        <g transform="matrix(1,0,0,1,180,0)">
                            <path d="M395,408L404,423L386,423L395,408Z" style="fill:rgb(212,49,212);stroke:black;stroke-width:0.77px;"/>
                        </g>
                        <g transform="matrix(1,0,0,1,198,0)">
                            <path d="M395,408L404,423L386,423L395,408Z" style="fill:rgb(218,218,78);stroke:black;stroke-width:0.77px;"/>
                        </g>
                    </g>
                    <g transform="matrix(1,0,0,1,-22,-7)">
                        <g transform="matrix(6.12323e-17,1,-1,6.12323e-17,1041,38)">
                            <path d="M395,408L404,423L386,423L395,408Z" style="fill:rgb(80,218,218);stroke:black;stroke-width:0.77px;"/>
                        </g>
                        <g transform="matrix(6.12323e-17,-1,1,6.12323e-17,210,819)">
                            <path d="M395,408L404,423L386,423L395,408Z" style="fill:rgb(212,49,212);stroke:black;stroke-width:0.77px;"/>
                        </g>
                        <g transform="matrix(6.12323e-17,-1,1,6.12323e-17,210,837)">
                            <path d="M395,408L404,423L386,423L395,408Z" style="fill:rgb(218,218,78);stroke:black;stroke-width:0.77px;"/>
                        </g>
                        <g transform="matrix(6.12323e-17,-1,1,6.12323e-17,210,855)">
                            <path d="M395,408L404,423L386,423L395,408Z" style="fill:rgb(80,218,218);stroke:black;stroke-width:0.77px;"/>
                        </g>
                        <g transform="matrix(6.12323e-17,-1,1,6.12323e-17,210,873)">
                            <path d="M395,408L404,423L386,423L395,408Z" style="fill:rgb(212,49,212);stroke:black;stroke-width:0.77px;"/>
                        </g>
                        <g transform="matrix(6.12323e-17,-1,1,6.12323e-17,210,891)">
                            <path d="M395,408L404,423L386,423L395,408Z" style="fill:rgb(218,218,78);stroke:black;stroke-width:0.77px;"/>
                        </g>
                        <g transform="matrix(6.12323e-17,-1,1,6.12323e-17,210,909)">
                            <path d="M395,408L404,423L386,423L395,408Z" style="fill:rgb(80,218,218);stroke:black;stroke-width:0.77px;"/>
                        </g>
                        <g transform="matrix(6.12323e-17,-1,1,6.12323e-17,210,927)">
                            <path d="M395,408L404,423L386,423L395,408Z" style="fill:rgb(212,49,212);stroke:black;stroke-width:0.77px;"/>
                        </g>
                        <g transform="matrix(6.12323e-17,-1,1,6.12323e-17,210,945)">
                            <path d="M395,408L404,423L386,423L395,408Z" style="fill:rgb(218,218,78);stroke:black;stroke-width:0.77px;"/>
                        </g>
                        <g transform="matrix(6.12323e-17,-1,1,6.12323e-17,210,963)">
                            <path d="M395,408L404,423L386,423L395,408Z" style="fill:rgb(80,218,218);stroke:black;stroke-width:0.77px;"/>
                        </g>
                        <g transform="matrix(6.12323e-17,-1,1,6.12323e-17,210,981)">
                            <path d="M395,408L404,423L386,423L395,408Z" style="fill:rgb(212,49,212);stroke:black;stroke-width:0.77px;"/>
                        </g>
                        <g transform="matrix(6.12323e-17,-1,1,6.12323e-17,210,999)">
                            <path d="M395,408L404,423L386,423L395,408Z" style="fill:rgb(218,218,78);stroke:black;stroke-width:0.77px;"/>
                        </g>
                        <g transform="matrix(6.12323e-17,-1,1,6.12323e-17,210,1017)">
                            <path d="M395,408L404,423L386,423L395,408Z" style="fill:rgb(80,218,218);stroke:black;stroke-width:0.77px;"/>
                        </g>
                        <g transform="matrix(6.12323e-17,-1,1,6.12323e-17,210,1035)">
                            <path d="M395,408L404,423L386,423L395,408Z" style="fill:rgb(212,49,212);stroke:black;stroke-width:0.77px;"/>
                        </g>
                        <g transform="matrix(6.12323e-17,1,-1,6.12323e-17,1041,56)">
                            <path d="M395,408L404,423L386,423L395,408Z" style="fill:rgb(212,49,212);stroke:black;stroke-width:0.77px;"/>
                        </g>
                        <g transform="matrix(6.12323e-17,1,-1,6.12323e-17,1041,74)">
                            <path d="M395,408L404,423L386,423L395,408Z" style="fill:rgb(218,218,78);stroke:black;stroke-width:0.77px;"/>
                        </g>
                        <g transform="matrix(6.12323e-17,1,-1,6.12323e-17,1041,92)">
                            <path d="M395,408L404,423L386,423L395,408Z" style="fill:rgb(80,218,218);stroke:black;stroke-width:0.77px;"/>
                        </g>
                        <g transform="matrix(6.12323e-17,1,-1,6.12323e-17,1041,110)">
                            <path d="M395,408L404,423L386,423L395,408Z" style="fill:rgb(212,49,212);stroke:black;stroke-width:0.77px;"/>
                        </g>
                        <g transform="matrix(6.12323e-17,1,-1,6.12323e-17,1041,128)">
                            <path d="M395,408L404,423L386,423L395,408Z" style="fill:rgb(218,218,78);stroke:black;stroke-width:0.77px;"/>
                        </g>
                        <g transform="matrix(6.12323e-17,1,-1,6.12323e-17,1041,146)">
                            <path d="M395,408L404,423L386,423L395,408Z" style="fill:rgb(80,218,218);stroke:black;stroke-width:0.77px;"/>
                        </g>
                        <g transform="matrix(6.12323e-17,1,-1,6.12323e-17,1041,164)">
                            <path d="M395,408L404,423L386,423L395,408Z" style="fill:rgb(212,49,212);stroke:black;stroke-width:0.77px;"/>
                        </g>
                        <g transform="matrix(6.12323e-17,1,-1,6.12323e-17,1041,182)">
                            <path d="M395,408L404,423L386,423L395,408Z" style="fill:rgb(218,218,78);stroke:black;stroke-width:0.77px;"/>
                        </g>
                        <g transform="matrix(6.12323e-17,1,-1,6.12323e-17,1041,200)">
                            <path d="M395,408L404,423L386,423L395,408Z" style="fill:rgb(80,218,218);stroke:black;stroke-width:0.77px;"/>
                        </g>
                        <g transform="matrix(6.12323e-17,1,-1,6.12323e-17,1041,218)">
                            <path d="M395,408L404,423L386,423L395,408Z" style="fill:rgb(212,49,212);stroke:black;stroke-width:0.77px;"/>
                        </g>
                        <g transform="matrix(6.12323e-17,1,-1,6.12323e-17,1041,236)">
                            <path d="M395,408L404,423L386,423L395,408Z" style="fill:rgb(218,218,78);stroke:black;stroke-width:0.77px;"/>
                        </g>
                    </g>
                    <g transform="matrix(1,0,0,1,3,-27)">
                        <g transform="matrix(-1,-1.22465e-16,1.22465e-16,-1,985,1077)">
                            <path d="M395,408L404,423L386,423L395,408Z" style="fill:rgb(80,218,218);stroke:black;stroke-width:0.77px;"/>
                        </g>
                        <g transform="matrix(1,2.44929e-16,-2.44929e-16,1,204,246)">
                            <path d="M395,408L404,423L386,423L395,408Z" style="fill:rgb(212,49,212);stroke:black;stroke-width:0.77px;"/>
                        </g>
                        <g transform="matrix(1,2.44929e-16,-2.44929e-16,1,186,246)">
                            <path d="M395,408L404,423L386,423L395,408Z" style="fill:rgb(218,218,78);stroke:black;stroke-width:0.77px;"/>
                        </g>
                        <g transform="matrix(1,2.44929e-16,-2.44929e-16,1,168,246)">
                            <path d="M395,408L404,423L386,423L395,408Z" style="fill:rgb(80,218,218);stroke:black;stroke-width:0.77px;"/>
                        </g>
                        <g transform="matrix(1,2.44929e-16,-2.44929e-16,1,150,246)">
                            <path d="M395,408L404,423L386,423L395,408Z" style="fill:rgb(212,49,212);stroke:black;stroke-width:0.77px;"/>
                        </g>
                        <g transform="matrix(1,2.44929e-16,-2.44929e-16,1,132,246)">
                            <path d="M395,408L404,423L386,423L395,408Z" style="fill:rgb(218,218,78);stroke:black;stroke-width:0.77px;"/>
                        </g>
                        <g transform="matrix(1,2.44929e-16,-2.44929e-16,1,114,246)">
                            <path d="M395,408L404,423L386,423L395,408Z" style="fill:rgb(80,218,218);stroke:black;stroke-width:0.77px;"/>
                        </g>
                        <g transform="matrix(1,2.44929e-16,-2.44929e-16,1,96,246)">
                            <path d="M395,408L404,423L386,423L395,408Z" style="fill:rgb(212,49,212);stroke:black;stroke-width:0.77px;"/>
                        </g>
                        <g transform="matrix(1,2.44929e-16,-2.44929e-16,1,78,246)">
                            <path d="M395,408L404,423L386,423L395,408Z" style="fill:rgb(218,218,78);stroke:black;stroke-width:0.77px;"/>
                        </g>
                        <g transform="matrix(1,2.44929e-16,-2.44929e-16,1,60,246)">
                            <path d="M395,408L404,423L386,423L395,408Z" style="fill:rgb(80,218,218);stroke:black;stroke-width:0.77px;"/>
                        </g>
                        <g transform="matrix(1,2.44929e-16,-2.44929e-16,1,42,246)">
                            <path d="M395,408L404,423L386,423L395,408Z" style="fill:rgb(212,49,212);stroke:black;stroke-width:0.77px;"/>
                        </g>
                        <g transform="matrix(1,2.44929e-16,-2.44929e-16,1,24,246)">
                            <path d="M395,408L404,423L386,423L395,408Z" style="fill:rgb(218,218,78);stroke:black;stroke-width:0.77px;"/>
                        </g>
                        <g transform="matrix(1,2.44929e-16,-2.44929e-16,1,6,246)">
                            <path d="M395,408L404,423L386,423L395,408Z" style="fill:rgb(80,218,218);stroke:black;stroke-width:0.77px;"/>
                        </g>
                        <g transform="matrix(1,2.44929e-16,-2.44929e-16,1,-12,246)">
                            <path d="M395,408L404,423L386,423L395,408Z" style="fill:rgb(212,49,212);stroke:black;stroke-width:0.77px;"/>
                        </g>
                        <g transform="matrix(-1,-1.22465e-16,1.22465e-16,-1,967,1077)">
                            <path d="M395,408L404,423L386,423L395,408Z" style="fill:rgb(212,49,212);stroke:black;stroke-width:0.77px;"/>
                        </g>
                        <g transform="matrix(-1,-1.22465e-16,1.22465e-16,-1,949,1077)">
                            <path d="M395,408L404,423L386,423L395,408Z" style="fill:rgb(218,218,78);stroke:black;stroke-width:0.77px;"/>
                        </g>
                        <g transform="matrix(-1,-1.22465e-16,1.22465e-16,-1,931,1077)">
                            <path d="M395,408L404,423L386,423L395,408Z" style="fill:rgb(80,218,218);stroke:black;stroke-width:0.77px;"/>
                        </g>
                        <g transform="matrix(-1,-1.22465e-16,1.22465e-16,-1,913,1077)">
                            <path d="M395,408L404,423L386,423L395,408Z" style="fill:rgb(212,49,212);stroke:black;stroke-width:0.77px;"/>
                        </g>
                        <g transform="matrix(-1,-1.22465e-16,1.22465e-16,-1,895,1077)">
                            <path d="M395,408L404,423L386,423L395,408Z" style="fill:rgb(218,218,78);stroke:black;stroke-width:0.77px;"/>
                        </g>
                        <g transform="matrix(-1,-1.22465e-16,1.22465e-16,-1,877,1077)">
                            <path d="M395,408L404,423L386,423L395,408Z" style="fill:rgb(80,218,218);stroke:black;stroke-width:0.77px;"/>
                        </g>
                        <g transform="matrix(-1,-1.22465e-16,1.22465e-16,-1,859,1077)">
                            <path d="M395,408L404,423L386,423L395,408Z" style="fill:rgb(212,49,212);stroke:black;stroke-width:0.77px;"/>
                        </g>
                        <g transform="matrix(-1,-1.22465e-16,1.22465e-16,-1,841,1077)">
                            <path d="M395,408L404,423L386,423L395,408Z" style="fill:rgb(218,218,78);stroke:black;stroke-width:0.77px;"/>
                        </g>
                        <g transform="matrix(-1,-1.22465e-16,1.22465e-16,-1,823,1077)">
                            <path d="M395,408L404,423L386,423L395,408Z" style="fill:rgb(80,218,218);stroke:black;stroke-width:0.77px;"/>
                        </g>
                        <g transform="matrix(-1,-1.22465e-16,1.22465e-16,-1,805,1077)">
                            <path d="M395,408L404,423L386,423L395,408Z" style="fill:rgb(212,49,212);stroke:black;stroke-width:0.77px;"/>
                        </g>
                        <g transform="matrix(-1,-1.22465e-16,1.22465e-16,-1,787,1077)">
                            <path d="M395,408L404,423L386,423L395,408Z" style="fill:rgb(218,218,78);stroke:black;stroke-width:0.77px;"/>
                        </g>
                    </g>
                    <g transform="matrix(1,0,0,1,26,-11)">
                        <g transform="matrix(6.12323e-17,-1,1,6.12323e-17,-57,1030)">
                            <path d="M395,408L404,423L386,423L395,408Z" style="fill:rgb(80,218,218);stroke:black;stroke-width:0.77px;"/>
                        </g>
                        <g transform="matrix(-1.83697e-16,1,-1,-1.83697e-16,774,249)">
                            <path d="M395,408L404,423L386,423L395,408Z" style="fill:rgb(212,49,212);stroke:black;stroke-width:0.77px;"/>
                        </g>
                        <g transform="matrix(-1.83697e-16,1,-1,-1.83697e-16,774,231)">
                            <path d="M395,408L404,423L386,423L395,408Z" style="fill:rgb(218,218,78);stroke:black;stroke-width:0.77px;"/>
                        </g>
                        <g transform="matrix(-1.83697e-16,1,-1,-1.83697e-16,774,213)">
                            <path d="M395,408L404,423L386,423L395,408Z" style="fill:rgb(80,218,218);stroke:black;stroke-width:0.77px;"/>
                        </g>
                        <g transform="matrix(-1.83697e-16,1,-1,-1.83697e-16,774,195)">
                            <path d="M395,408L404,423L386,423L395,408Z" style="fill:rgb(212,49,212);stroke:black;stroke-width:0.77px;"/>
                        </g>
                        <g transform="matrix(-1.83697e-16,1,-1,-1.83697e-16,774,177)">
                            <path d="M395,408L404,423L386,423L395,408Z" style="fill:rgb(218,218,78);stroke:black;stroke-width:0.77px;"/>
                        </g>
                        <g transform="matrix(-1.83697e-16,1,-1,-1.83697e-16,774,159)">
                            <path d="M395,408L404,423L386,423L395,408Z" style="fill:rgb(80,218,218);stroke:black;stroke-width:0.77px;"/>
                        </g>
                        <g transform="matrix(-1.83697e-16,1,-1,-1.83697e-16,774,141)">
                            <path d="M395,408L404,423L386,423L395,408Z" style="fill:rgb(212,49,212);stroke:black;stroke-width:0.77px;"/>
                        </g>
                        <g transform="matrix(-1.83697e-16,1,-1,-1.83697e-16,774,123)">
                            <path d="M395,408L404,423L386,423L395,408Z" style="fill:rgb(218,218,78);stroke:black;stroke-width:0.77px;"/>
                        </g>
                        <g transform="matrix(-1.83697e-16,1,-1,-1.83697e-16,774,105)">
                            <path d="M395,408L404,423L386,423L395,408Z" style="fill:rgb(80,218,218);stroke:black;stroke-width:0.77px;"/>
                        </g>
                        <g transform="matrix(-1.83697e-16,1,-1,-1.83697e-16,774,87)">
                            <path d="M395,408L404,423L386,423L395,408Z" style="fill:rgb(212,49,212);stroke:black;stroke-width:0.77px;"/>
                        </g>
                        <g transform="matrix(-1.83697e-16,1,-1,-1.83697e-16,774,69)">
                            <path d="M395,408L404,423L386,423L395,408Z" style="fill:rgb(218,218,78);stroke:black;stroke-width:0.77px;"/>
                        </g>
                        <g transform="matrix(-1.83697e-16,1,-1,-1.83697e-16,774,51)">
                            <path d="M395,408L404,423L386,423L395,408Z" style="fill:rgb(80,218,218);stroke:black;stroke-width:0.77px;"/>
                        </g>
                        <g transform="matrix(-1.83697e-16,1,-1,-1.83697e-16,774,33)">
                            <path d="M395,408L404,423L386,423L395,408Z" style="fill:rgb(212,49,212);stroke:black;stroke-width:0.77px;"/>
                        </g>
                        <g transform="matrix(6.12323e-17,-1,1,6.12323e-17,-57,1012)">
                            <path d="M395,408L404,423L386,423L395,408Z" style="fill:rgb(212,49,212);stroke:black;stroke-width:0.77px;"/>
                        </g>
                        <g transform="matrix(6.12323e-17,-1,1,6.12323e-17,-57,994)">
                            <path d="M395,408L404,423L386,423L395,408Z" style="fill:rgb(218,218,78);stroke:black;stroke-width:0.77px;"/>
                        </g>
                        <g transform="matrix(6.12323e-17,-1,1,6.12323e-17,-57,976)">
                            <path d="M395,408L404,423L386,423L395,408Z" style="fill:rgb(80,218,218);stroke:black;stroke-width:0.77px;"/>
                        </g>
                        <g transform="matrix(6.12323e-17,-1,1,6.12323e-17,-57,958)">
                            <path d="M395,408L404,423L386,423L395,408Z" style="fill:rgb(212,49,212);stroke:black;stroke-width:0.77px;"/>
                        </g>
                        <g transform="matrix(6.12323e-17,-1,1,6.12323e-17,-57,940)">
                            <path d="M395,408L404,423L386,423L395,408Z" style="fill:rgb(218,218,78);stroke:black;stroke-width:0.77px;"/>
                        </g>
                        <g transform="matrix(6.12323e-17,-1,1,6.12323e-17,-57,922)">
                            <path d="M395,408L404,423L386,423L395,408Z" style="fill:rgb(80,218,218);stroke:black;stroke-width:0.77px;"/>
                        </g>
                        <g transform="matrix(6.12323e-17,-1,1,6.12323e-17,-57,904)">
                            <path d="M395,408L404,423L386,423L395,408Z" style="fill:rgb(212,49,212);stroke:black;stroke-width:0.77px;"/>
                        </g>
                        <g transform="matrix(6.12323e-17,-1,1,6.12323e-17,-57,886)">
                            <path d="M395,408L404,423L386,423L395,408Z" style="fill:rgb(218,218,78);stroke:black;stroke-width:0.77px;"/>
                        </g>
                        <g transform="matrix(6.12323e-17,-1,1,6.12323e-17,-57,868)">
                            <path d="M395,408L404,423L386,423L395,408Z" style="fill:rgb(80,218,218);stroke:black;stroke-width:0.77px;"/>
                        </g>
                        <g transform="matrix(6.12323e-17,-1,1,6.12323e-17,-57,850)">
                            <path d="M395,408L404,423L386,423L395,408Z" style="fill:rgb(212,49,212);stroke:black;stroke-width:0.77px;"/>
                        </g>
                        <g transform="matrix(6.12323e-17,-1,1,6.12323e-17,-57,832)">
                            <path d="M395,408L404,423L386,423L395,408Z" style="fill:rgb(218,218,78);stroke:black;stroke-width:0.77px;"/>
                        </g>
                    </g>
                    <g>
                        <path d="M395,408L404,423L386,423L395,408Z" style="fill:rgb(80,218,218);stroke:black;stroke-width:0.77px;"/>
                        <g transform="matrix(-1,-1.22465e-16,1.22465e-16,-1,781,831)">
                            <path d="M395,408L404,423L386,423L395,408Z" style="fill:rgb(212,49,212);stroke:black;stroke-width:0.77px;"/>
                        </g>
                        <g transform="matrix(-1,-1.22465e-16,1.22465e-16,-1,799,831)">
                            <path d="M395,408L404,423L386,423L395,408Z" style="fill:rgb(218,218,78);stroke:black;stroke-width:0.77px;"/>
                        </g>
                    </g>
                </g>
                <g id="highlights" transform="matrix(0.170152,0,0,0.304608,590.166,431.931)">
                    <g id="lighten-right" transform="matrix(0.733566,0,0,1.79634,577.746,330.151)">
                        <path d="M318.445,13.474L307.046,16.135L307,309.719L318.507,317.25L318.445,13.474Z" style="fill:url(#_Linear1);"/>
                    </g>
                    <g id="lighten-left" transform="matrix(0.733566,0,0,1.79634,41.82,329.808)">
                        <path d="M318.46,32.91L307.046,32.909L307.001,303.893L318.456,306.56L318.46,32.91Z" style="fill:url(#_Linear2);"/>
                    </g>
                    <g id="lighten-bottom" transform="matrix(4.50483e-17,0.707308,-1.86843,1.09994e-16,850.098,651.724)">
                        <path d="M318.53,35.559L307.046,32.912L307.001,306.558L318.456,306.56L318.53,35.559Z" style="fill:url(#_Linear3);"/>
                    </g>
                    <g id="lighten-top" transform="matrix(4.50483e-17,0.707308,-1.99795,1.17619e-16,853.79,136.461)">
                        <path d="M318.46,29.442L307.048,22.471L307.001,306.558L318.456,304.003L318.46,29.442Z" style="fill:url(#_Linear4);"/>
                    </g>
                    <g id="darken-top" transform="matrix(2.57664e-17,0.40456,-1.99795,1.17619e-16,853.743,258.282)">
                        <path d="M318.46,39.578L307.063,39.576L307.003,294.576L318.456,295.489L318.46,39.578Z" style="fill:url(#_Linear5);"/>
                    </g>
                    <g id="darken-bottom" transform="matrix(2.57048e-17,0.403594,-1.99795,1.17619e-16,853.743,773.827)">
                        <path d="M318.461,21.551L307.067,22.512L307.003,303.054L318.456,305.625L318.461,21.551Z" style="fill:url(#_Linear6);"/>
                    </g>
                    <g id="darken-left" transform="matrix(-0.485192,-5.71262e-17,2.44679e-16,-1.92086,395.136,934.899)">
                        <path d="M318.461,17.297L307.067,18.227L307.004,298.79L318.456,301.365L318.461,17.297Z" style="fill:url(#_Linear7);"/>
                    </g>
                    <g id="darken-right" transform="matrix(0.488705,3.13253e-17,1.14338e-16,1.92086,626.499,279.774)">
                        <path d="M318.457,47.607L307.061,49.184L307.003,305.748L318.456,305.745L318.457,47.607Z" style="fill:url(#_Linear8);"/>
                    </g>
                </g>
            </g>
        </g>
    </g>
    <defs>
        <linearGradient id="_Linear1" x1="0" y1="0" x2="1" y2="0" gradientUnits="userSpaceOnUse" gradientTransform="matrix(-7.8975,3.79719e-16,-8.64178e-16,-2.77047,314.898,172.101)"><stop offset="0" style="stop-color:white;stop-opacity:0.6"/><stop offset="1" style="stop-color:white;stop-opacity:0"/></linearGradient>
        <linearGradient id="_Linear2" x1="0" y1="0" x2="1" y2="0" gradientUnits="userSpaceOnUse" gradientTransform="matrix(-8.4463,4.06105e-16,-8.32349e-16,-2.66843,315.447,175.649)"><stop offset="0" style="stop-color:white;stop-opacity:0.6"/><stop offset="1" style="stop-color:white;stop-opacity:0"/></linearGradient>
        <linearGradient id="_Linear3" x1="0" y1="0" x2="1" y2="0" gradientUnits="userSpaceOnUse" gradientTransform="matrix(8.55871,1.72563e-31,3.45127e-31,2.68366,309.902,167.685)"><stop offset="0" style="stop-color:white;stop-opacity:0.6"/><stop offset="1" style="stop-color:white;stop-opacity:0"/></linearGradient>
        <linearGradient id="_Linear4" x1="0" y1="0" x2="1" y2="0" gradientUnits="userSpaceOnUse" gradientTransform="matrix(8.26226,3.20475e-31,5.91646e-31,2.68955,310.198,162.386)"><stop offset="0" style="stop-color:white;stop-opacity:0.6"/><stop offset="1" style="stop-color:white;stop-opacity:0"/></linearGradient>
        <linearGradient id="_Linear5" x1="0" y1="0" x2="1" y2="0" gradientUnits="userSpaceOnUse" gradientTransform="matrix(-7.5923,-1.95826e-16,9.29789e-16,-1.59904,314.595,143.98)"><stop offset="0" style="stop-color:black;stop-opacity:0.28"/><stop offset="1" style="stop-color:black;stop-opacity:0"/></linearGradient>
        <linearGradient id="_Linear6" x1="0" y1="0" x2="1" y2="0" gradientUnits="userSpaceOnUse" gradientTransform="matrix(-7.59555,-1.95443e-16,1.03499e-15,-1.77571,314.598,137.444)"><stop offset="0" style="stop-color:black;stop-opacity:0.28"/><stop offset="1" style="stop-color:black;stop-opacity:0"/></linearGradient>
        <linearGradient id="_Linear7" x1="0" y1="0" x2="1" y2="0" gradientUnits="userSpaceOnUse" gradientTransform="matrix(-8.59979,2.55756e-16,-1.05317e-15,-2.08841,315.604,162.122)"><stop offset="0" style="stop-color:black;stop-opacity:0.28"/><stop offset="1" style="stop-color:black;stop-opacity:0"/></linearGradient>
        <linearGradient id="_Linear8" x1="0" y1="0" x2="1" y2="0" gradientUnits="userSpaceOnUse" gradientTransform="matrix(8.38766,-1.36786e-16,-4.31786e-16,1.84554,310.073,179.535)"><stop offset="0" style="stop-color:black;stop-opacity:0.28"/><stop offset="1" style="stop-color:black;stop-opacity:0"/></linearGradient>
    </defs>
</svg>
